<?xml version="1.0" encoding="UTF-8"?>
<svg version="1.1" xmlns="http://www.w3.org/2000/svg" width="600" height="600">
<path d="M0 0 C7.59 0 15.18 0 23 0 C27.29 11.88 31.58 23.76 36 36 C36.33 24.12 36.66 12.24 37 0 C42.61 0 48.22 0 54 0 C54 22.11 54 44.22 54 67 C46.08 67 38.16 67 30 67 C26.04 55.45 22.08 43.9 18 32 C17.67 43.55 17.34 55.1 17 67 C11.39 67 5.78 67 0 67 C0 44.89 0 22.78 0 0 Z " fill="#00ADDB" transform="translate(443,316)"/>
<path d="M0 0 C1.84375 1.04296875 1.84375 1.04296875 3.5 2.1875 C6.75498783 4.34339544 6.75498783 4.34339544 9.625 3.4375 C11.26131474 2.44709897 12.86489324 1.40122776 14.4375 0.3125 C17.86317621 -1.44211465 19.27802385 -0.93376658 23 0 C25.71348332 1.20175052 28.28810095 2.61112931 30.875 4.0625 C31.56335938 4.43955078 32.25171875 4.81660156 32.9609375 5.20507812 C34.6449213 6.12893035 36.32307467 7.06339667 38 8 C41.01011139 38.93224583 41.01011139 38.93224583 36.29638672 46.86816406 C31.99555444 51.16030779 26.87844226 53.64776746 21.31640625 55.96386719 C18.14778206 57.38119867 15.81129153 59.25079317 13.125 61.4375 C11.0078125 63.12109375 11.0078125 63.12109375 9 64 C5.05112485 62.75944283 1.95229269 60.74722011 -1.4140625 58.375 C-2.42210938 57.66859375 -3.43015625 56.9621875 -4.46875 56.234375 C-5.5103125 55.49703125 -6.551875 54.7596875 -7.625 54 C-9.70045462 52.54157243 -11.77597256 51.08323498 -13.8515625 49.625 C-14.76760254 48.97789062 -15.68364258 48.33078125 -16.62744141 47.6640625 C-18.40212808 46.41933474 -20.19637673 45.20241552 -22 44 C-22.2667616 41.23371085 -22.34804189 38.69380369 -22.29296875 35.9296875 C-22.28872391 35.13345978 -22.28447906 34.33723206 -22.28010559 33.51687622 C-22.26328834 30.96924271 -22.22563179 28.42239511 -22.1875 25.875 C-22.17245705 24.14975099 -22.15876796 22.42448961 -22.14648438 20.69921875 C-22.11337501 16.46584218 -22.06157285 12.23305441 -22 8 C-19.28348686 6.45570235 -16.55013724 4.94398394 -13.8125 3.4375 C-13.04357422 2.99986328 -12.27464844 2.56222656 -11.48242188 2.11132812 C-4.29025662 -1.80886495 -4.29025662 -1.80886495 0 0 Z " fill="#00ACDA" transform="translate(110,277)"/>
<path d="M0 0 C1.15371094 0.44794922 2.30742187 0.89589844 3.49609375 1.35742188 C4.68589844 1.82599609 5.87570313 2.29457031 7.1015625 2.77734375 C8.31457031 3.24978516 9.52757812 3.72222656 10.77734375 4.20898438 C13.76246429 5.37247624 16.74540358 6.54124667 19.7265625 7.71484375 C23.9056311 36.57542006 23.9056311 36.57542006 18.56750488 44.41760254 C11.36954335 52.1202251 -1.96192686 58.58560732 -12.2734375 59.71484375 C-14.79161706 58.50623635 -16.95392316 57.292079 -19.2734375 55.77734375 C-20.14935547 55.22723633 -20.14935547 55.22723633 -21.04296875 54.66601562 C-22.33527147 53.85390539 -23.61284953 53.01808684 -24.87817383 52.16455078 C-27.36986538 50.58408689 -27.36986538 50.58408689 -30.64331055 49.24560547 C-39.43581409 45.01517644 -39.43581409 45.01517644 -40.94683838 40.86550903 C-41.9004729 35.49686765 -41.45828181 30.12221261 -41.0859375 24.71484375 C-41.02065041 23.06533224 -40.96134811 21.41557235 -40.90820312 19.765625 C-40.765645 15.74251847 -40.54195135 11.73142964 -40.2734375 7.71484375 C-36.40313851 6.11106331 -32.52552537 4.52695608 -28.64013672 2.96020508 C-27.32092762 2.42511524 -26.00382065 1.88481089 -24.68896484 1.33911133 C-22.79279694 0.55322796 -20.8897288 -0.21326591 -18.984375 -0.9765625 C-17.84274902 -1.44263916 -16.70112305 -1.90871582 -15.52490234 -2.38891602 C-9.80196195 -3.96639869 -5.3742618 -2.10181526 0 0 Z " fill="#BCD531" transform="translate(128.2734375,218.28515625)"/>
<path d="M0 0 C5.61 -0.061875 11.22 -0.12375 17 -0.1875 C18.75441406 -0.21481201 20.50882812 -0.24212402 22.31640625 -0.27026367 C23.73176387 -0.27903851 25.14712915 -0.28668008 26.5625 -0.29296875 C27.27728516 -0.30831665 27.99207031 -0.32366455 28.72851562 -0.33947754 C35.3687117 -0.34287001 40.81177664 1.09719708 45.875 5.5 C50.16285582 10.54453626 50.42556316 13.5920158 50.32421875 20.046875 C49.74841616 25.29153478 46.80128419 28.57884423 43 32 C43.9075 32.53625 44.815 33.0725 45.75 33.625 C49.21671248 36.00733796 51.190793 38.10324646 53 42 C53.74657722 47.47743902 53.95561251 52.9797328 51.375 58 C47.41286579 63.00480111 43.08821671 65.35071941 37 67 C34.10254451 67.25448245 31.22704027 67.23402822 28.3203125 67.1953125 C27.59900146 67.19329834 26.87769043 67.19128418 26.13452148 67.18920898 C23.46461541 67.17882024 20.79480067 67.15089814 18.125 67.125 C9.153125 67.063125 9.153125 67.063125 0 67 C0 44.89 0 22.78 0 0 Z M19 14 C19 17.96 19 21.92 19 26 C25.39825263 26.47326369 25.39825263 26.47326369 31 24 C32.09616096 21.68805807 32.09616096 21.68805807 32 19 C30.77570579 16.00990148 30.77570579 16.00990148 28 14 C24.87752544 13.57079387 22.17567073 13.7664948 19 14 Z M19 40 C19 44.62 19 49.24 19 54 C26.17687826 54.63724741 26.17687826 54.63724741 32.6875 52.375 C34.40455522 49.26794769 34.58338557 47.50031342 34 44 C32.8213337 41.40087749 32.8213337 41.40087749 30 40 C26.26603606 39.66689818 22.76345914 39.82078766 19 40 Z " fill="#BDD631" transform="translate(330,237)"/>
<path d="M0 0 C38.75 0 38.75 0 47.5859375 8.53125 C54.87416109 16.35275824 56.36998088 25.80475612 56.2109375 36.25390625 C55.44084103 46.27942143 52.57747903 54.01255368 45.04296875 60.75 C31.54295877 71.48805765 18.89334796 67 0 67 C0 44.89 0 22.78 0 0 Z M19 14 C19 27.2 19 40.4 19 54 C26.53524663 54.12882994 26.53524663 54.12882994 32 50 C36.8818461 44.25665165 36.68730196 36.96986698 36.39453125 29.80078125 C35.75487398 23.63853847 33.71854422 19.14804014 29 15 C25.4202491 13.63106761 25.4202491 13.63106761 19 14 Z " fill="#00ADDB" transform="translate(178,316)"/>
<path d="M0 0 C0.763125 0.639375 1.52625 1.27875 2.3125 1.9375 C2.3125 4.9375 2.3125 4.9375 0.78125 6.76171875 C-0.19328125 7.68404297 -0.19328125 7.68404297 -1.1875 8.625 C-2.16203125 9.55892578 -2.16203125 9.55892578 -3.15625 10.51171875 C-3.6615625 10.98222656 -4.166875 11.45273437 -4.6875 11.9375 C-5.491875 11.64875 -6.29625 11.36 -7.125 11.0625 C-8.300625 10.69125 -9.47625 10.32 -10.6875 9.9375 C-11.3990625 9.71191406 -12.110625 9.48632812 -12.84375 9.25390625 C-16.90627868 8.13392831 -19.31387094 7.85174907 -23.5 8.8125 C-28.33768468 12.03762312 -29.92409153 15.64810764 -31.21875 21.2265625 C-32.36711209 29.23899801 -32.02776377 38.393672 -27.5 45.25 C-23.95361339 47.37783197 -21.76056536 47.39006282 -17.6875 46.9375 C-16.6975 46.6075 -15.7075 46.2775 -14.6875 45.9375 C-14.3575 42.3075 -14.0275 38.6775 -13.6875 34.9375 C-16.3275 34.9375 -18.9675 34.9375 -21.6875 34.9375 C-22.0175 30.9775 -22.3475 27.0175 -22.6875 22.9375 C-14.4375 22.9375 -6.1875 22.9375 2.3125 22.9375 C2.40435363 27.44087952 2.4839723 31.94100992 2.53222656 36.44458008 C2.5523398 37.97626762 2.5796345 39.50787839 2.61425781 41.03930664 C2.66279315 43.24124073 2.68546996 45.44215982 2.703125 47.64453125 C2.72377014 48.32900833 2.74441528 49.01348541 2.76568604 49.71870422 C2.76660156 51.65942383 2.76660156 51.65942383 2.3125 54.9375 C-3.79232886 61.01494593 -13.0451867 61.30864592 -21.1875 61.4375 C-28.56566354 61.39959358 -34.80186613 60.83037635 -40.6875 55.9375 C-48.78816763 47.62823149 -50.95338851 38.07541888 -50.93408203 26.74389648 C-50.74886947 16.30222109 -47.57469302 8.77905586 -40.17578125 1.4375 C-28.21400227 -9.11147044 -13.06609591 -7.96263256 0 0 Z " fill="#00ADDB" transform="translate(431.6875,322.0625)"/>
<path d="M0 0 C14.52 0 29.04 0 44 0 C43.34 4.62 42.68 9.24 42 14 C34.41 14 26.82 14 19 14 C19 18.29 19 22.58 19 27 C25.6 27 32.2 27 39 27 C39 31.29 39 35.58 39 40 C32.4 40 25.8 40 19 40 C19 44.62 19 49.24 19 54 C26.92 54 34.84 54 43 54 C43 58.29 43 62.58 43 67 C28.81 67 14.62 67 0 67 C0 44.89 0 22.78 0 0 Z " fill="#00ADDB" transform="translate(242,316)"/>
<path d="M0 0 C4.74220609 3.07590995 9.38462541 6.23910423 13.89453125 9.6484375 C14.70470703 10.26074219 15.51488281 10.87304688 16.34960938 11.50390625 C18.01521889 12.76929397 19.67657785 14.0402931 21.33398438 15.31640625 C22.13771484 15.92097656 22.94144531 16.52554687 23.76953125 17.1484375 C24.48729736 17.69677246 25.20506348 18.24510742 25.94458008 18.81005859 C28.18111918 20.33401608 28.18111918 20.33401608 32 20 C34.36792468 18.5949757 34.36792468 18.5949757 36.73828125 16.640625 C37.64126953 15.93679688 38.54425781 15.23296875 39.47460938 14.5078125 C40.41111328 13.76273437 41.34761719 13.01765625 42.3125 12.25 C44.15962675 10.79289374 46.00982273 9.33966862 47.86328125 7.890625 C48.68094971 7.24125977 49.49861816 6.59189453 50.34106445 5.92285156 C53.44828169 3.67581796 56.64469829 1.85429315 60 0 C60.32472425 4.78247725 60.55863793 9.5583927 60.71411133 14.34936523 C60.77896254 15.9728984 60.86730008 17.5956878 60.98071289 19.21655273 C61.86979635 32.26314855 61.86979635 32.26314855 58.77874756 36.78756714 C55.78504497 39.99934885 52.35968146 42.47811453 48.69076538 44.86253357 C45.96313772 46.69755156 43.51116923 48.81790901 41 50.9375 C37.68154224 53.64386418 34.3466862 56.32862727 31 59 C26.96194134 57.63733356 24.45631882 55.8590849 21.375 52.9375 C12.35768473 44.53780259 12.35768473 44.53780259 2.37158203 37.37524414 C-0.38072384 34.61868826 -0.56854588 33.03731307 -0.56648254 29.21051025 C-0.54067612 28.46557312 -0.51486969 27.72063599 -0.48828125 26.953125 C-0.48120651 26.18192322 -0.47413177 25.41072144 -0.46684265 24.6161499 C-0.43891578 22.15976788 -0.37618739 19.70568949 -0.3125 17.25 C-0.28741461 15.58206424 -0.26460185 13.91409264 -0.24414062 12.24609375 C-0.18909562 8.16317873 -0.10284057 4.08197951 0 0 Z " fill="#53C6E7" transform="translate(88,324)"/>
<path d="M0 0 C0.598125 0.5775 1.19625 1.155 1.8125 1.75 C0.3265084 6.34306496 -2.03764682 9.18569245 -5.1875 12.75 C-6.321875 12.110625 -7.45625 11.47125 -8.625 10.8125 C-13.03565366 8.59932503 -17.2525233 7.70133159 -22.1875 7.75 C-23.1775 8.08 -24.1675 8.41 -25.1875 8.75 C-26.19228037 10.6022367 -26.19228037 10.6022367 -26.1875 12.75 C-23.6540114 16.40729289 -19.39369944 17.31392821 -15.375 18.6875 C-7.47108382 21.3901294 -1.46598305 24.14380791 2.8125 31.75 C4.55503183 37.41611343 4.40448628 42.88056963 2.625 48.5 C-0.88079788 54.78625826 -5.53484213 58.28983926 -12.1875 60.75 C-15.35734557 61.2623359 -18.42064732 61.26767347 -21.625 61.1875 C-22.81706055 61.19813477 -22.81706055 61.19813477 -24.03320312 61.20898438 C-33.19501783 61.1120734 -40.05459469 58.36526588 -47.1875 52.75 C-46.59466379 49.35807637 -45.42006811 47.5392243 -43.125 45 C-42.30322266 44.07960938 -42.30322266 44.07960938 -41.46484375 43.140625 C-41.04332031 42.68171875 -40.62179687 42.2228125 -40.1875 41.75 C-37.3643974 42.86213133 -34.65531053 44.01609473 -31.9375 45.375 C-27.58735233 46.97005415 -23.77970022 47.43527019 -19.1875 46.75 C-16.19072742 45.08477942 -16.19072742 45.08477942 -15.1875 42.9375 C-14.95663206 40.50474862 -14.95663206 40.50474862 -17.19140625 38.30078125 C-20.70239433 35.31163495 -23.79484525 34.13307635 -28.125 32.75 C-34.37743255 30.74174902 -39.78618724 28.60116197 -43.4296875 22.7578125 C-45.41713663 16.84453793 -45.99125793 12.20357683 -44 6.125 C-40.90732056 0.3662176 -37.19422576 -2.7471976 -31.1875 -5.25 C-20.13453419 -7.89310052 -9.3720333 -6.61555292 0 0 Z " fill="#00ADDB" transform="translate(341.1875,322.25)"/>
<path d="M0 0 C6.6 0 13.2 0 20 0 C23.33333333 6.66666667 26.66666667 13.33333333 30 20 C30.55429687 18.89140625 31.10859375 17.7828125 31.6796875 16.640625 C34.453125 11.09375 37.2265625 5.546875 40 0 C46.6 0 53.2 0 60 0 C59.02979962 4.85100191 57.39042978 8.23725488 55 12.44921875 C44.8514372 30.95671891 37.97188381 45.34124976 40 67 C33.73 67 27.46 67 21 67 C21.15984375 65.659375 21.3196875 64.31875 21.484375 62.9375 C22.80714365 41.84863073 12.94028953 25.61607681 3.02348328 7.68641663 C0 2.198741 0 2.198741 0 0 Z " fill="#BDD631" transform="translate(383,237)"/>
<path d="M0 0 C7.00406547 2.23811399 13.77276643 4.87005265 20.5625 7.6875 C21.57119141 8.10322266 22.57988281 8.51894531 23.61914062 8.94726562 C26.0805506 9.96215979 28.54079283 10.97978253 31 12 C33.68850691 39.37654279 33.68850691 39.37654279 29.50878906 46.56445312 C25.6998895 50.46111535 21.11121653 52.76015336 16.17626953 54.95898438 C12.95901994 56.49795142 10.41965641 58.53834728 7.625 60.75 C3.35772358 64 3.35772358 64 0 64 C0.06396973 63.0527002 0.12793945 62.10540039 0.19384766 61.12939453 C1.93877552 44.07535833 1.93877552 44.07535833 -2.81396484 28.45556641 C-7.54418407 24.53466531 -13.06828047 22.42917008 -19 21 C-16.01083235 17.86314955 -12.57254065 15.63108645 -8.9375 13.3125 C-8.30005859 12.89677734 -7.66261719 12.48105469 -7.00585938 12.05273438 C-2.24880696 9 -2.24880696 9 0 9 C0 6.03 0 3.06 0 0 Z " fill="#00ACDA" transform="translate(151,253)"/>
<path d="M0 0 C-0.0103125 1.20011719 -0.020625 2.40023437 -0.03125 3.63671875 C0.3171492 6.42084546 0.6461103 7.64975329 2.66015625 9.64306641 C4.88743767 11.15406971 7.14827958 12.50366691 9.5 13.8125 C11.07713094 14.72845892 12.65027326 15.65133071 14.21875 16.58203125 C15.2696582 17.17334839 15.2696582 17.17334839 16.34179688 17.77661133 C18 19 18 19 19 22 C13.06 24.97 7.12 27.94 1 31 C0.67 41.89 0.34 52.78 0 64 C-3.77370753 62.49051699 -6.04774543 61.43896572 -9.1796875 59.13671875 C-9.94410156 58.57919922 -10.70851563 58.02167969 -11.49609375 57.44726562 C-12.28113281 56.86654297 -13.06617187 56.28582031 -13.875 55.6875 C-15.43480732 54.54545202 -16.99470196 53.40352329 -18.5546875 52.26171875 C-19.30129639 51.69203369 -20.04790527 51.12234863 -20.81713867 50.53540039 C-22.91146066 48.96111437 -22.91146066 48.96111437 -25.11450195 48.04077148 C-27.44260288 46.90693122 -28.5511835 46.17015759 -30 44 C-30.8738323 38.5401226 -30.65790375 33.19521743 -30.4375 27.6875 C-30.40236712 26.16869111 -30.37043152 24.64980467 -30.34179688 23.13085938 C-30.26486369 19.41895608 -30.1441903 15.7099689 -30 12 C-25.88919258 10.28877543 -21.77744458 8.57983761 -17.66479492 6.87304688 C-16.26479185 6.29164971 -14.8650514 5.70961972 -13.46557617 5.12695312 C-11.45820121 4.29131668 -9.44990401 3.45793347 -7.44140625 2.625 C-6.23170166 2.12226563 -5.02199707 1.61953125 -3.77563477 1.1015625 C-1 0 -1 0 0 0 Z " fill="#53C6E7" transform="translate(84,253)"/>
<path d="M0 0 C17.16 0 34.32 0 52 0 C51.34 4.62 50.68 9.24 50 14 C44.72 14 39.44 14 34 14 C34 31.49 34 48.98 34 67 C28.06 67 22.12 67 16 67 C16 49.51 16 32.02 16 14 C10.72 14 5.44 14 0 14 C0 9.38 0 4.76 0 0 Z " fill="#00ADDB" transform="translate(260,237)"/>
<path d="M0 0 C6.27 0 12.54 0 19 0 C19 22.11 19 44.22 19 67 C12.73 67 6.46 67 0 67 C0 44.89 0 22.78 0 0 Z " fill="#00ADDB" transform="translate(232,237)"/>
<path d="M0 0 C5.94 0 11.88 0 18 0 C18 22.11 18 44.22 18 67 C12.06 67 6.12 67 0 67 C0 44.89 0 22.78 0 0 Z " fill="#00ADDB" transform="translate(354,316)"/>
<path d="M0 0 C0.32472425 4.78247725 0.55863793 9.5583927 0.71411133 14.34936523 C0.77896254 15.9728984 0.86730008 17.5956878 0.98071289 19.21655273 C1.8699361 32.26519919 1.8699361 32.26519919 -1.22225952 36.78756714 C-4.21803359 39.9990557 -7.64509729 42.47644626 -11.31425476 44.86253357 C-14.02643162 46.69259072 -16.45105197 48.81297054 -18.9375 50.9375 C-22.48984986 53.87491449 -26.15444295 56.46019443 -30 59 C-30.27383964 53.89585885 -30.47234244 48.79606263 -30.60424805 43.6862793 C-30.65926213 41.95244842 -30.73411011 40.21912088 -30.82983398 38.48706055 C-31.59981566 24.1868127 -31.59981566 24.1868127 -27.84082031 19.04858398 C-25.01465672 16.71370068 -22.15890599 14.85433404 -19 13 C-17.32869346 11.77593782 -15.66894705 10.5358715 -14.0234375 9.27734375 C-12.47656426 8.16044446 -10.92712065 7.04709556 -9.375 5.9375 C-8.57449219 5.35806641 -7.77398437 4.77863281 -6.94921875 4.18164062 C-1.13343049 0 -1.13343049 0 0 0 Z " fill="#00ADDB" transform="translate(148,324)"/>
<path d="M0 0 C3.57151455 1.33111044 6.70686884 2.92188078 9.94140625 4.93359375 C10.85470703 5.50013672 11.76800781 6.06667969 12.70898438 6.65039062 C13.65064453 7.24013672 14.59230469 7.82988281 15.5625 8.4375 C16.50802734 9.02337891 17.45355469 9.60925781 18.42773438 10.21289062 C23.56762048 13.41305999 23.56762048 13.41305999 26 15 C27.12668091 15.58467041 27.12668091 15.58467041 28.27612305 16.18115234 C31.0242447 19.08067172 30.49157144 22.39333516 30.390625 26.16796875 C30.38496521 26.96278152 30.37930542 27.7575943 30.37347412 28.57649231 C30.35109004 31.11410866 30.30089262 33.6503108 30.25 36.1875 C30.2299375 37.90818273 30.21168629 39.62888759 30.1953125 41.34960938 C30.15121894 45.56695082 30.08217965 49.78323569 30 54 C25.88050021 51.69058345 21.90695712 49.34564686 18.046875 46.6171875 C17.180625 46.00746094 16.314375 45.39773438 15.421875 44.76953125 C14.54015625 44.14433594 13.6584375 43.51914062 12.75 42.875 C10.97410989 41.62218097 9.19807458 40.36956774 7.421875 39.1171875 C6.64424805 38.56659668 5.86662109 38.01600586 5.06542969 37.44873047 C3.39312853 36.2757476 1.69959995 35.13306663 0 34 C-0.26697888 31.37537756 -0.34832984 28.98934067 -0.29296875 26.3671875 C-0.28872391 25.61535187 -0.28447906 24.86351624 -0.28010559 24.08889771 C-0.2632917 21.68390315 -0.22563624 19.27974191 -0.1875 16.875 C-0.17245659 15.24610584 -0.15876758 13.61719856 -0.14648438 11.98828125 C-0.11337954 7.99186566 -0.06158009 3.99607418 0 0 Z " fill="#53C6E7" transform="translate(88,287)"/>
<path d="M0 0 C2.94020702 1.36926113 5.87660478 2.74652098 8.8125 4.125 C10.03356445 4.69347656 10.03356445 4.69347656 11.27929688 5.2734375 C17.68867134 8.28961372 23.75174394 11.59186033 30 15 C30 26.88 30 38.76 30 51 C28.35 50.34 26.7 49.68 25 49 C24.05535889 48.64873047 23.11071777 48.29746094 22.13745117 47.93554688 C13.89938665 44.69621641 5.5456318 41.12830491 0 34 C-3.77006787 23.61125888 -1.4703773 10.68534492 0 0 Z " fill="#D1DF74" transform="translate(88,227)"/>
<path d="M0 0 C1.84375 1.04296875 1.84375 1.04296875 3.5 2.1875 C6.75498783 4.34339544 6.75498783 4.34339544 9.625 3.4375 C11.26131474 2.44709897 12.86489324 1.40122776 14.4375 0.3125 C17.86317621 -1.44211465 19.27802385 -0.93376658 23 0 C25.71348332 1.20175052 28.28810095 2.61112931 30.875 4.0625 C31.56335938 4.43955078 32.25171875 4.81660156 32.9609375 5.20507812 C34.6449213 6.12893035 36.32307467 7.06339667 38 8 C33.66473401 12.90545754 28.57125773 15.86741262 22.9375 19.125 C21.1537986 20.16730649 19.37120479 21.21151122 17.58984375 22.2578125 C16.41216431 22.94061279 16.41216431 22.94061279 15.21069336 23.63720703 C12.94144146 24.94216719 12.94144146 24.94216719 11.02563477 26.79638672 C9 28 9 28 6.60424805 27.40258789 C3.7760159 25.87936734 1.0470965 24.27652826 -1.66796875 22.55859375 C-2.72564453 21.89279297 -3.78332031 21.22699219 -4.87304688 20.54101562 C-5.96681641 19.84685547 -7.06058594 19.15269531 -8.1875 18.4375 C-10.36805439 17.06050851 -12.54902272 15.68417225 -14.73046875 14.30859375 C-15.69364014 13.69814209 -16.65681152 13.08769043 -17.64916992 12.45874023 C-19.90423897 11.00971549 -19.90423897 11.00971549 -22 10 C-22 9.34 -22 8.68 -22 8 C-19.28348686 6.45570235 -16.55013724 4.94398394 -13.8125 3.4375 C-13.04357422 2.99986328 -12.27464844 2.56222656 -11.48242188 2.11132812 C-4.29025662 -1.80886495 -4.29025662 -1.80886495 0 0 Z " fill="#0093B8" transform="translate(110,277)"/>
<path d="M0 0 C1.15371094 0.44794922 2.30742187 0.89589844 3.49609375 1.35742188 C4.68589844 1.82599609 5.87570313 2.29457031 7.1015625 2.77734375 C8.31457031 3.24978516 9.52757812 3.72222656 10.77734375 4.20898438 C13.76246429 5.37247624 16.74540358 6.54124667 19.7265625 7.71484375 C11.17832995 14.32035326 -1.96622609 24.24190849 -13.17480469 23.53076172 C-18.44990171 22.02511662 -22.86656329 19.25613368 -27.30664062 16.09179688 C-30.0677161 14.15876985 -32.96292756 12.68939453 -35.9609375 11.15234375 C-37.40168341 10.34561349 -38.84075952 9.53581653 -40.2734375 8.71484375 C-36.40358488 4.84499113 -30.55756343 3.48294978 -25.5234375 1.52734375 C-24.34265625 1.05103516 -23.161875 0.57472656 -21.9453125 0.08398438 C-20.800625 -0.36138672 -19.6559375 -0.80675781 -18.4765625 -1.265625 C-17.43145508 -1.67707764 -16.38634766 -2.08853027 -15.30957031 -2.51245117 C-9.72587576 -3.9335185 -5.21854734 -2.04091703 0 0 Z " fill="#A6BB39" transform="translate(128.2734375,218.28515625)"/>
<path d="M0 0 C7.00406547 2.23811399 13.77276643 4.87005265 20.5625 7.6875 C21.57119141 8.10322266 22.57988281 8.51894531 23.61914062 8.94726562 C26.0805506 9.96215979 28.54079283 10.97978253 31 12 C26.71795216 16.60366224 21.64284323 19.54070009 16.29174805 22.76538086 C14.56206155 23.8127655 12.846764 24.88139917 11.13085938 25.95117188 C9.49020508 26.94407227 9.49020508 26.94407227 7.81640625 27.95703125 C6.32282593 28.86932495 6.32282593 28.86932495 4.79907227 29.80004883 C1.5535617 31.19138633 0.29597615 31.13193778 -3 30 C-5.03637695 29.06030273 -5.03637695 29.06030273 -6.98828125 27.93359375 C-7.69404297 27.53076172 -8.39980469 27.12792969 -9.12695312 26.71289062 C-9.84818359 26.29201172 -10.56941406 25.87113281 -11.3125 25.4375 C-12.05306641 25.01275391 -12.79363281 24.58800781 -13.55664062 24.15039062 C-15.37468118 23.10648347 -17.18783748 22.05407808 -19 21 C-16.01083235 17.86314955 -12.57254065 15.63108645 -8.9375 13.3125 C-8.30005859 12.89677734 -7.66261719 12.48105469 -7.00585938 12.05273438 C-2.24880696 9 -2.24880696 9 0 9 C0 6.03 0 3.06 0 0 Z " fill="#0093B8" transform="translate(151,253)"/>
<path d="M0 0 C-0.0103125 1.20011719 -0.020625 2.40023437 -0.03125 3.63671875 C0.3171492 6.42084546 0.6461103 7.64975329 2.66015625 9.64306641 C4.88743767 11.15406971 7.14827958 12.50366691 9.5 13.8125 C11.07713094 14.72845892 12.65027326 15.65133071 14.21875 16.58203125 C15.2696582 17.17334839 15.2696582 17.17334839 16.34179688 17.77661133 C18 19 18 19 19 22 C16.11924932 23.57115597 13.21862191 25.1013586 10.3125 26.625 C9.49587891 27.07101562 8.67925781 27.51703125 7.83789062 27.9765625 C1.74789748 31.13251036 1.74789748 31.13251036 -1.6015625 30.5390625 C-2.39304687 30.03117187 -3.18453125 29.52328125 -4 29 C-5.20984994 28.34452827 -6.42235218 27.69394061 -7.63671875 27.046875 C-8.98913321 26.2850614 -10.33931572 25.51927497 -11.6875 24.75 C-12.74227539 24.15046509 -12.74227539 24.15046509 -13.81835938 23.53881836 C-15.22558453 22.73669357 -16.63169647 21.93261224 -18.03662109 21.12646484 C-19.7779989 20.12737044 -21.52347356 19.1354242 -23.26953125 18.14453125 C-24.17058594 17.62246094 -25.07164063 17.10039062 -26 16.5625 C-26.78375 16.11003906 -27.5675 15.65757812 -28.375 15.19140625 C-29.179375 14.60166016 -29.179375 14.60166016 -30 14 C-30 13.34 -30 12.68 -30 12 C-25.88919258 10.28877543 -21.77744458 8.57983761 -17.66479492 6.87304688 C-16.26479185 6.29164971 -14.8650514 5.70961972 -13.46557617 5.12695312 C-11.45820121 4.29131668 -9.44990401 3.45793347 -7.44140625 2.625 C-6.23170166 2.12226563 -5.02199707 1.61953125 -3.77563477 1.1015625 C-1 0 -1 0 0 0 Z " fill="#0093B8" transform="translate(84,253)"/>
<path d="M0 0 C4.8846525 2.26787438 7.73212562 5.1153475 10 10 C10.75070518 15.57666708 10.74743187 20.32575261 8.4375 25.5 C4.23127907 29.81407275 0.57338157 32.18909233 -5.4375 32.5 C-11.67411535 32.18071935 -16.1251856 29.8748144 -20.5 25.5 C-22.72140319 20.31672589 -22.74770142 15.5543534 -22 10 C-17.52212837 0.3553534 -9.85292056 -1.32635469 0 0 Z M-16 9 C-17.72875745 12.45751491 -17.34786254 16.21289276 -17 20 C-15.55353541 23.913963 -14.34638906 24.80393072 -10.6875 26.875 C-6.71979632 28.08548587 -4.8951889 28.35484831 -1 27 C3.37906515 23.26553801 3.37906515 23.26553801 5.2734375 18.046875 C5.46329043 13.75327801 5.4342668 10.90417036 2.625 7.5 C-0.91601383 4.12760588 -2.96800422 3.60473045 -7.89453125 3.640625 C-11.61593453 4.27581814 -13.40312849 6.33979016 -16 9 Z " fill="#00ADDB" transform="translate(536,353)"/>
<path d="M0 0 C0.58652344 0.32613281 1.17304687 0.65226562 1.77734375 0.98828125 C1.76574219 1.56835938 1.75414062 2.1484375 1.7421875 2.74609375 C1.68972201 7.28810585 1.85983312 11.51541694 2.77734375 15.98828125 C1.12734375 15.98828125 -0.52265625 15.98828125 -2.22265625 15.98828125 C-2.49078125 15.18390625 -2.75890625 14.37953125 -3.03515625 13.55078125 C-3.42703125 12.70515625 -3.81890625 11.85953125 -4.22265625 10.98828125 C-5.21265625 10.65828125 -6.20265625 10.32828125 -7.22265625 9.98828125 C-7.22265625 11.96828125 -7.22265625 13.94828125 -7.22265625 15.98828125 C-8.87265625 15.98828125 -10.52265625 15.98828125 -12.22265625 15.98828125 C-12.22265625 10.70828125 -12.22265625 5.42828125 -12.22265625 -0.01171875 C-8.08327826 -1.39151141 -4.0552527 -1.84588831 0 0 Z M-7.22265625 2.98828125 C-7.22265625 4.30828125 -7.22265625 5.62828125 -7.22265625 6.98828125 C-5.90265625 6.65828125 -4.58265625 6.32828125 -3.22265625 5.98828125 C-3.22265625 4.99828125 -3.22265625 4.00828125 -3.22265625 2.98828125 C-4.54265625 2.98828125 -5.86265625 2.98828125 -7.22265625 2.98828125 Z " fill="#00ADDB" transform="translate(535.22265625,361.01171875)"/>
</svg>
